<svg width="61" height="29" viewBox="0 0 61 29" fill="none" xmlns="http://www.w3.org/2000/svg">
<path d="M17.7362 4.15039H0.253906V9.51537H17.7362V4.15039Z" fill="white" fill-opacity="0.8"/>
<path d="M17.7362 14.8145H0.253906V20.1794H17.7362V14.8145Z" fill="white" fill-opacity="0.8"/>
<path d="M28.5884 1.3418H23.054V22.9809H28.5884V1.3418Z" fill="white" fill-opacity="0.8"/>
<path d="M44.902 0.554688C42.6063 0.554752 40.3622 1.23557 38.4534 2.51105C36.5446 3.78653 35.0569 5.59938 34.1784 7.72036C33.2999 9.84135 33.0701 12.1752 33.518 14.4268C33.9659 16.6784 35.0714 18.7466 36.6948 20.3699C38.3181 21.9932 40.3864 23.0987 42.638 23.5465C44.8896 23.9944 47.2234 23.7645 49.3444 22.8859C51.4653 22.0074 53.2782 20.5196 54.5536 18.6108C55.829 16.702 56.5098 14.4578 56.5098 12.1621C56.5098 10.6378 56.2095 9.12836 55.6262 7.72006C55.0428 6.31177 54.1878 5.03216 53.1099 3.95431C52.032 2.87645 50.7524 2.02146 49.3441 1.43816C47.9358 0.854848 46.4264 0.554645 44.902 0.554688ZM44.902 18.2403C43.6999 18.2403 42.5247 17.8839 41.5251 17.216C40.5256 16.5481 39.7465 15.5988 39.2865 14.4881C38.8264 13.3775 38.706 12.1554 38.9406 10.9763C39.1751 9.79724 39.754 8.7142 40.6041 7.86414C41.4541 7.01408 42.5371 6.43519 43.7162 6.20065C44.8953 5.96612 46.1174 6.08649 47.2281 6.54654C48.3387 7.00659 49.288 7.78565 49.9559 8.78521C50.6238 9.78478 50.9803 10.9599 50.9803 12.1621C50.9784 13.7736 50.3375 15.3186 49.198 16.4581C48.0585 17.5976 46.5135 18.2385 44.902 18.2403Z" fill="white" fill-opacity="0.8"/>
<path d="M57.6221 21.9316C56.9829 21.9316 56.3581 22.1212 55.8267 22.4763C55.2952 22.8314 54.881 23.3361 54.6364 23.9266C54.3918 24.5172 54.3278 25.1669 54.4525 25.7938C54.5772 26.4207 54.885 26.9966 55.3369 27.4485C55.7889 27.9005 56.3647 28.2083 56.9916 28.333C57.6185 28.4577 58.2683 28.3937 58.8588 28.1491C59.4493 27.9045 59.9541 27.4903 60.3092 26.9588C60.6643 26.4274 60.8538 25.8025 60.8538 25.1634C60.8527 24.3066 60.5119 23.4852 59.906 22.8794C59.3002 22.2736 58.4789 21.9328 57.6221 21.9316Z" fill="white" fill-opacity="0.8"/>
</svg>
