<svg id="Layer_1" data-name="Layer 1" xmlns="http://www.w3.org/2000/svg" viewBox="0 0 959.89 282.5"><defs><style>.cls-1{fill:#fcb746;}.cls-2{fill:#fff;}</style></defs><polygon class="cls-1" points="177.17 0.04 177.13 0 123.87 60.88 123.87 134.42 177.17 77.57 177.25 77.49 232.99 134.42 232.99 60.88 177.17 0.04"/><polygon class="cls-2" points="179.69 282.46 179.73 282.5 232.99 221.62 232.99 148.08 179.69 204.93 179.61 205.01 123.87 148.08 123.87 221.62 179.69 282.46"/><rect class="cls-2" x="253.97" y="20.46" width="11.1" height="241.57" rx="1.13"/><rect class="cls-2" x="284.57" y="50.02" width="11.1" height="182.45" rx="1.13"/><rect class="cls-2" x="315.17" y="102.72" width="11.1" height="77.06" rx="1.13"/><rect class="cls-2" x="345.76" y="116.7" width="11.1" height="49.11" rx="1.13"/><rect class="cls-2" x="91.79" y="38.54" width="11.1" height="241.57" rx="1.13" transform="translate(194.68 300.57) rotate(-180)"/><rect class="cls-2" x="61.19" y="68.09" width="11.1" height="182.45" rx="1.13" transform="translate(133.49 300.57) rotate(-180)"/><rect class="cls-2" x="30.6" y="120.79" width="11.1" height="77.06" rx="1.13" transform="translate(72.29 300.57) rotate(-180)"/><rect class="cls-2" y="134.77" width="11.1" height="49.11" rx="1.13" transform="translate(11.1 300.57) rotate(-180)"/><path class="cls-2" d="M500.12,139.65V179H491V162.86H473.15V179h-9.1V139.65h9.1v15.51H491V139.65Z" transform="translate(0 -18.07)"/><path class="cls-2" d="M554.27,139.65h9.1V179h-9.1Z" transform="translate(0 -18.07)"/><path class="cls-2" d="M631,147.07H618.41v-7.42h34.27v7.42H640.1V179H631Z" transform="translate(0 -18.07)"/><path class="cls-2" d="M729.33,153.93c0,8.76-6.57,14.21-17.08,14.21h-7.92V179h-9.11V139.65h17C722.76,139.65,729.33,145.1,729.33,153.93Zm-9.22,0c0-4.33-2.81-6.86-8.37-6.86h-7.41v13.65h7.41C717.3,160.72,720.11,158.2,720.11,153.93Z" transform="translate(0 -18.07)"/><path class="cls-2" d="M784.46,139.65h9.1V179h-9.1Z" transform="translate(0 -18.07)"/><path class="cls-2" d="M861.3,163.53,856,169V179h-9V139.65h9V158l17.42-18.38h10.11l-16.3,17.54L884.5,179H873.88Z" transform="translate(0 -18.07)"/><path class="cls-2" d="M950.11,179,942.52,168h-8.37V179h-9.1V139.65h17c10.51,0,17.08,5.45,17.08,14.28a12.77,12.77,0,0,1-8.09,12.41L959.89,179Zm-8.54-31.91h-7.42v13.71h7.42c5.56,0,8.37-2.58,8.37-6.85S947.13,147.07,941.57,147.07Z" transform="translate(0 -18.07)"/></svg>