<svg width="117" height="30" viewBox="0 0 117 30" fill="none" xmlns="http://www.w3.org/2000/svg">
<path d="M13.8574 22V21.377C14.5449 21.377 15.0964 21.334 15.5117 21.248C15.9414 21.1478 16.2637 20.9831 16.4785 20.7539C16.7077 20.5104 16.8581 20.181 16.9297 19.7656C17.0013 19.3359 17.0371 18.7917 17.0371 18.1328V11.3867H6.76758V18.1328C6.76758 18.806 6.80339 19.3574 6.875 19.7871C6.94661 20.2025 7.09701 20.5319 7.32617 20.7754C7.55534 21.0046 7.8776 21.1621 8.29297 21.248C8.72266 21.334 9.28841 21.377 9.99023 21.377V22H0.580078V21.377C1.2819 21.377 1.84049 21.334 2.25586 21.248C2.67122 21.1621 2.98633 21.0046 3.20117 20.7754C3.41602 20.5319 3.55208 20.2025 3.60938 19.7871C3.66667 19.3574 3.69531 18.806 3.69531 18.1328V3.91016C3.69531 3.23698 3.65951 2.69271 3.58789 2.27734C3.5306 1.84766 3.39453 1.51107 3.17969 1.26758C2.96484 1.02409 2.64974 0.859375 2.23438 0.773438C1.81901 0.673177 1.26758 0.623047 0.580078 0.623047V0.0429688H9.99023V0.623047C9.30273 0.623047 8.7513 0.673177 8.33594 0.773438C7.92057 0.859375 7.59115 1.02409 7.34766 1.26758C7.11849 1.51107 6.96094 1.84766 6.875 2.27734C6.80339 2.69271 6.76758 3.23698 6.76758 3.91016V10.2051H17.0371V3.91016C17.0371 3.23698 17.0013 2.69271 16.9297 2.27734C16.8581 1.84766 16.7077 1.51107 16.4785 1.26758C16.2637 1.02409 15.9414 0.859375 15.5117 0.773438C15.0964 0.673177 14.5449 0.623047 13.8574 0.623047V0.0429688H23.2676V0.623047C22.623 0.623047 22.0931 0.666016 21.6777 0.751953C21.2767 0.823568 20.9616 0.973958 20.7324 1.20312C20.5176 1.41797 20.3672 1.72591 20.2812 2.12695C20.1953 2.51367 20.1523 3.02214 20.1523 3.65234V18.3477C20.1523 19.0065 20.1953 19.5365 20.2812 19.9375C20.3672 20.3385 20.5176 20.6465 20.7324 20.8613C20.9616 21.0762 21.2767 21.2194 21.6777 21.291C22.0931 21.3483 22.623 21.377 23.2676 21.377V22H13.8574ZM39.3809 14.3086C39.3809 15.3828 39.209 16.4141 38.8652 17.4023C38.5358 18.3906 38.056 19.2643 37.4258 20.0234C36.7956 20.7682 36.0293 21.3698 35.127 21.8281C34.2246 22.2721 33.2077 22.4941 32.0762 22.4941C31.002 22.4941 30.028 22.2793 29.1543 21.8496C28.2949 21.4056 27.5573 20.8255 26.9414 20.1094C26.3398 19.3932 25.8672 18.5697 25.5234 17.6387C25.194 16.7077 25.0293 15.7409 25.0293 14.7383C25.0293 13.6927 25.194 12.6901 25.5234 11.7305C25.8672 10.7565 26.3542 9.9043 26.9844 9.17383C27.6146 8.42904 28.3737 7.83464 29.2617 7.39062C30.1497 6.94661 31.1452 6.72461 32.248 6.72461C33.3223 6.72461 34.2962 6.92513 35.1699 7.32617C36.0579 7.71289 36.8099 8.25 37.4258 8.9375C38.056 9.625 38.5358 10.4342 38.8652 11.3652C39.209 12.2819 39.3809 13.263 39.3809 14.3086ZM36.3516 15.5762C36.3516 15.1035 36.3229 14.5807 36.2656 14.0078C36.2083 13.4349 36.1081 12.862 35.9648 12.2891C35.8216 11.7018 35.6354 11.1432 35.4062 10.6133C35.1771 10.069 34.8906 9.58919 34.5469 9.17383C34.2031 8.74414 33.7949 8.40755 33.3223 8.16406C32.8639 7.90625 32.3268 7.77734 31.7109 7.77734C30.9805 7.77734 30.3789 7.96354 29.9062 8.33594C29.4336 8.69401 29.0612 9.15234 28.7891 9.71094C28.5169 10.2552 28.3307 10.8568 28.2305 11.5156C28.1302 12.1745 28.0801 12.7975 28.0801 13.3848C28.0801 13.8574 28.1087 14.3802 28.166 14.9531C28.2376 15.526 28.3451 16.1061 28.4883 16.6934C28.6315 17.2806 28.8177 17.8535 29.0469 18.4121C29.2904 18.9564 29.584 19.4434 29.9277 19.873C30.2715 20.3027 30.6725 20.6465 31.1309 20.9043C31.6035 21.1621 32.1406 21.291 32.7422 21.291C33.5156 21.291 34.1387 21.112 34.6113 20.7539C35.084 20.3815 35.4492 19.916 35.707 19.3574C35.9648 18.7845 36.1367 18.1615 36.2227 17.4883C36.3086 16.8151 36.3516 16.1777 36.3516 15.5762ZM49.7578 19.2715C49.6432 19.6725 49.4714 20.0664 49.2422 20.4531C49.013 20.8398 48.7337 21.1836 48.4043 21.4844C48.0892 21.7852 47.7311 22.0286 47.3301 22.2148C46.9434 22.401 46.5208 22.4941 46.0625 22.4941C45.4896 22.4941 45.0098 22.3796 44.623 22.1504C44.2507 21.9355 43.9499 21.6491 43.7207 21.291C43.4915 20.9186 43.334 20.4961 43.248 20.0234C43.1621 19.5508 43.1191 19.0638 43.1191 18.5625V8.27148H40.7773V7.77734C41.3359 7.5625 41.8444 7.25456 42.3027 6.85352C42.7754 6.45247 43.1979 6.0013 43.5703 5.5C43.957 4.98438 44.2936 4.44727 44.5801 3.88867C44.8809 3.33008 45.1387 2.79297 45.3535 2.27734H45.8477V7.17578H49.3281V8.27148H45.8477V18.1758C45.8477 18.4193 45.862 18.6842 45.8906 18.9707C45.9336 19.2572 46.0052 19.5293 46.1055 19.7871C46.2057 20.0306 46.349 20.2383 46.5352 20.4102C46.7357 20.5677 46.9863 20.6465 47.2871 20.6465C47.7741 20.6465 48.1608 20.5247 48.4473 20.2812C48.7337 20.0234 48.9629 19.6868 49.1348 19.2715H49.7578ZM63.5293 16.5859C63.429 17.3594 63.207 18.1042 62.8633 18.8203C62.5195 19.5221 62.0827 20.1452 61.5527 20.6895C61.0228 21.2337 60.4069 21.6706 59.7051 22C59.0176 22.3294 58.2656 22.4941 57.4492 22.4941C56.3893 22.4941 55.4512 22.2721 54.6348 21.8281C53.8327 21.3841 53.1595 20.7969 52.6152 20.0664C52.071 19.3359 51.6628 18.5052 51.3906 17.5742C51.1185 16.6432 50.9824 15.6979 50.9824 14.7383C50.9824 13.6641 51.1185 12.6471 51.3906 11.6875C51.6771 10.7135 52.0996 9.86133 52.6582 9.13086C53.2311 8.40039 53.9473 7.82031 54.8066 7.39062C55.6803 6.94661 56.6973 6.72461 57.8574 6.72461C58.7454 6.72461 59.5404 6.875 60.2422 7.17578C60.944 7.47656 61.5384 7.89909 62.0254 8.44336C62.5124 8.97331 62.8848 9.61068 63.1426 10.3555C63.4004 11.0859 63.5293 11.888 63.5293 12.7617H53.2812C53.2812 13.5638 53.3887 14.3802 53.6035 15.2109C53.8184 16.0417 54.1478 16.8008 54.5918 17.4883C55.0358 18.1615 55.5944 18.7201 56.2676 19.1641C56.9551 19.5938 57.7643 19.8086 58.6953 19.8086C59.2682 19.8086 59.7767 19.7227 60.2207 19.5508C60.679 19.3646 61.0801 19.1139 61.4238 18.7988C61.7819 18.4694 62.0898 18.0898 62.3477 17.6602C62.6198 17.2161 62.849 16.7435 63.0352 16.2422L63.5293 16.5859ZM60.1348 11.8379C60.1348 11.3366 60.0703 10.8496 59.9414 10.377C59.8268 9.9043 59.6335 9.48893 59.3613 9.13086C59.1035 8.75846 58.7741 8.45768 58.373 8.22852C57.972 7.99935 57.4922 7.88477 56.9336 7.88477C56.375 7.88477 55.8809 7.99935 55.4512 8.22852C55.0215 8.44336 54.6491 8.73698 54.334 9.10938C54.0332 9.46745 53.7897 9.88997 53.6035 10.377C53.4316 10.8496 53.3242 11.3366 53.2812 11.8379H60.1348ZM76.248 18.2617C76.248 18.9062 76.0977 19.4863 75.7969 20.002C75.4961 20.5176 75.1094 20.9616 74.6367 21.334C74.1641 21.7064 73.627 21.9928 73.0254 22.1934C72.4382 22.3939 71.8509 22.4941 71.2637 22.4941C70.9199 22.4941 70.5618 22.4368 70.1895 22.3223C69.8314 22.222 69.4805 22.1074 69.1367 21.9785C68.793 21.8496 68.4635 21.735 68.1484 21.6348C67.8477 21.5202 67.5684 21.4629 67.3105 21.4629C67.2533 21.4629 67.1888 21.4987 67.1172 21.5703C67.0599 21.6276 67.0026 21.6992 66.9453 21.7852C66.9023 21.8568 66.8594 21.9355 66.8164 22.0215C66.7878 22.1074 66.7591 22.1719 66.7305 22.2148H66.1719V16.9297H66.7305C66.8451 17.5169 67.0241 18.0827 67.2676 18.627C67.5111 19.1712 67.819 19.6582 68.1914 20.0879C68.5781 20.5033 69.0221 20.8398 69.5234 21.0977C70.0391 21.3411 70.6191 21.4629 71.2637 21.4629C71.5931 21.4629 71.9082 21.4199 72.209 21.334C72.5241 21.2337 72.7962 21.0905 73.0254 20.9043C73.2689 20.7181 73.4622 20.4889 73.6055 20.2168C73.7487 19.9447 73.8203 19.6296 73.8203 19.2715C73.8203 18.584 73.627 18.0111 73.2402 17.5527C72.8678 17.0801 72.3952 16.6647 71.8223 16.3066C71.2493 15.9486 70.6335 15.612 69.9746 15.2969C69.3158 14.9674 68.6999 14.6022 68.127 14.2012C67.554 13.7858 67.0742 13.306 66.6875 12.7617C66.3151 12.2031 66.1289 11.5156 66.1289 10.6992C66.1289 10.0117 66.265 9.42448 66.5371 8.9375C66.8092 8.4362 67.1673 8.02083 67.6113 7.69141C68.0553 7.36198 68.5638 7.11849 69.1367 6.96094C69.724 6.80339 70.3184 6.72461 70.9199 6.72461C71.2064 6.72461 71.4857 6.75326 71.7578 6.81055C72.0299 6.86784 72.3021 6.93945 72.5742 7.02539C72.8464 7.09701 73.1113 7.16146 73.3691 7.21875C73.6413 7.27604 73.9134 7.30469 74.1855 7.30469C74.3574 7.30469 74.4935 7.2474 74.5938 7.13281C74.7083 7.01823 74.8014 6.88216 74.873 6.72461H75.4531V11.7949H74.873C74.7585 11.265 74.5938 10.7565 74.3789 10.2695C74.1784 9.76823 73.9206 9.32422 73.6055 8.9375C73.2904 8.55078 72.9036 8.24284 72.4453 8.01367C72.0013 7.77018 71.4785 7.64844 70.877 7.64844C70.5618 7.64844 70.2324 7.67708 69.8887 7.73438C69.5592 7.79167 69.2513 7.89193 68.9648 8.03516C68.6927 8.17839 68.4635 8.37891 68.2773 8.63672C68.1055 8.89453 68.0195 9.23112 68.0195 9.64648C68.0195 10.3626 68.2201 10.9499 68.6211 11.4082C69.0365 11.8522 69.5449 12.2461 70.1465 12.5898C70.7624 12.9193 71.4212 13.2344 72.123 13.5352C72.8392 13.8359 73.498 14.1868 74.0996 14.5879C74.7155 14.9746 75.224 15.4616 75.625 16.0488C76.0404 16.6217 76.248 17.3594 76.248 18.2617ZM101.062 0.623047C100.404 0.623047 99.8665 0.680339 99.4512 0.794922C99.0358 0.909505 98.7135 1.10286 98.4844 1.375C98.2552 1.64714 98.0977 2.00521 98.0117 2.44922C97.9258 2.87891 97.8828 3.40885 97.8828 4.03906V12.9766C97.8828 14.4805 97.7396 15.8268 97.4531 17.0156C97.181 18.1901 96.7155 19.1855 96.0566 20.002C95.4121 20.8184 94.5456 21.4486 93.457 21.8926C92.3685 22.3223 91.015 22.5371 89.3965 22.5371C87.6061 22.5371 86.1452 22.3151 85.0137 21.8711C83.8965 21.4271 83.0228 20.7826 82.3926 19.9375C81.7624 19.0781 81.3327 18.0326 81.1035 16.8008C80.8887 15.5547 80.7812 14.1367 80.7812 12.5469V3.91016C80.7812 3.30859 80.7526 2.80013 80.6953 2.38477C80.638 1.9694 80.5091 1.63281 80.3086 1.375C80.1224 1.10286 79.8359 0.909505 79.4492 0.794922C79.0768 0.680339 78.5684 0.623047 77.9238 0.623047V0.0429688H86.7539V0.623047C86.1237 0.623047 85.6224 0.680339 85.25 0.794922C84.8776 0.909505 84.5911 1.10286 84.3906 1.375C84.1901 1.63281 84.054 1.9694 83.9824 2.38477C83.9251 2.80013 83.8965 3.30859 83.8965 3.91016V13.5137C83.8965 14.5306 83.9609 15.5046 84.0898 16.4355C84.2331 17.3522 84.5052 18.1615 84.9062 18.8633C85.3216 19.5508 85.9017 20.1022 86.6465 20.5176C87.4056 20.9186 88.3939 21.1191 89.6113 21.1191C90.5996 21.1191 91.5449 20.9616 92.4473 20.6465C93.3496 20.3314 94.166 19.8301 94.8965 19.1426C95.2546 18.8132 95.5339 18.3835 95.7344 17.8535C95.9349 17.3092 96.0853 16.7435 96.1855 16.1562C96.2858 15.5547 96.3431 14.9603 96.3574 14.373C96.3861 13.7715 96.4004 13.2487 96.4004 12.8047V3.91016C96.4004 3.22266 96.3646 2.67122 96.293 2.25586C96.2357 1.82617 96.0924 1.48958 95.8633 1.24609C95.6484 1.0026 95.3333 0.837891 94.918 0.751953C94.5026 0.666016 93.9512 0.623047 93.2637 0.623047V0.0429688H101.062V0.623047ZM116.854 14.0293C116.854 15.0319 116.71 16.0417 116.424 17.0586C116.137 18.0612 115.708 18.9635 115.135 19.7656C114.562 20.5677 113.846 21.2266 112.986 21.7422C112.141 22.2435 111.153 22.4941 110.021 22.4941C109.363 22.4941 108.732 22.3796 108.131 22.1504C107.544 21.9212 107.007 21.5775 106.52 21.1191V25.6523C106.52 26.1966 106.541 26.6478 106.584 27.0059C106.627 27.3639 106.727 27.6504 106.885 27.8652C107.057 28.0801 107.307 28.2376 107.637 28.3379C107.98 28.4382 108.439 28.4954 109.012 28.5098V29.1328H101.191V28.5098C101.793 28.4954 102.266 28.4382 102.609 28.3379C102.953 28.252 103.204 28.1016 103.361 27.8867C103.533 27.6719 103.641 27.3783 103.684 27.0059C103.727 26.6335 103.748 26.1536 103.748 25.5664V11.5371C103.748 11.2936 103.748 11.0215 103.748 10.7207C103.762 10.4199 103.734 10.1406 103.662 9.88281C103.605 9.61068 103.49 9.38867 103.318 9.2168C103.161 9.0306 102.903 8.9375 102.545 8.9375C102.158 8.9375 101.793 9.02344 101.449 9.19531L101.277 8.61523L105.896 6.76758H106.52V10.248C106.777 9.80404 107.064 9.37435 107.379 8.95898C107.694 8.5293 108.045 8.14974 108.432 7.82031C108.833 7.49089 109.262 7.22591 109.721 7.02539C110.193 6.82487 110.709 6.72461 111.268 6.72461C112.242 6.72461 113.079 6.95378 113.781 7.41211C114.483 7.85612 115.056 8.42904 115.5 9.13086C115.958 9.83268 116.295 10.6204 116.51 11.4941C116.739 12.3535 116.854 13.1986 116.854 14.0293ZM114.254 15.5762C114.254 14.8887 114.189 14.151 114.061 13.3633C113.946 12.5612 113.731 11.8164 113.416 11.1289C113.101 10.4414 112.664 9.86849 112.105 9.41016C111.561 8.95182 110.852 8.72266 109.979 8.72266C109.635 8.72266 109.298 8.80859 108.969 8.98047C108.639 9.15234 108.324 9.36719 108.023 9.625C107.737 9.86849 107.465 10.1335 107.207 10.4199C106.964 10.7064 106.734 10.9714 106.52 11.2148V16.7578C106.52 17.3737 106.555 17.9681 106.627 18.541C106.699 19.0996 106.856 19.6009 107.1 20.0449C107.343 20.4746 107.687 20.8184 108.131 21.0762C108.589 21.334 109.205 21.4629 109.979 21.4629C110.781 21.4629 111.454 21.2839 111.998 20.9258C112.542 20.5534 112.979 20.0807 113.309 19.5078C113.638 18.9349 113.874 18.3047 114.018 17.6172C114.175 16.9154 114.254 16.235 114.254 15.5762Z" fill="#E07B40"/>
</svg>
