<svg width="250" height="46" viewBox="0 0 250 46" fill="none" xmlns="http://www.w3.org/2000/svg">
<g clip-path="url(#clip0_2005_255)">
<path d="M75.8005 26.9485C75.773 27.0121 75.7446 27.0765 75.7153 27.1401L70.5166 38.228C70.5131 38.235 70.5113 38.2403 70.5077 38.2483C70.4678 38.333 70.4278 38.416 70.3843 38.4982C70.339 38.5882 70.2937 38.6756 70.244 38.7622C70.1437 38.9414 70.0389 39.1163 69.9262 39.2867C69.8374 39.4209 69.7459 39.5525 69.65 39.6787C69.5151 39.8615 69.3721 40.0372 69.2229 40.205C69.1173 40.326 69.0063 40.4417 68.8917 40.5556C68.866 40.5847 68.8394 40.6112 68.8101 40.6386C68.6067 40.839 68.3919 41.0288 68.1663 41.2063C68.09 41.2664 68.0136 41.3255 67.9355 41.3838C67.781 41.4977 67.6212 41.6081 67.4569 41.7114C67.3788 41.7617 67.3006 41.8094 67.2225 41.8562C67.1355 41.9083 67.0458 41.9578 66.9552 42.0063C66.7865 42.0982 66.6116 42.1856 66.4349 42.265C66.4127 42.2756 66.3896 42.2871 66.3657 42.296C66.2982 42.3269 66.2289 42.356 66.1606 42.3843C66.1242 42.3984 66.0895 42.4134 66.0531 42.4258C65.9368 42.4726 65.8187 42.5158 65.7006 42.5556C65.6713 42.5679 65.642 42.5776 65.6136 42.5865C65.4316 42.6483 65.2443 42.7021 65.0569 42.7507C64.3857 42.9211 63.6878 43.0112 62.9748 43.0094C62.8798 43.0094 62.7856 43.0077 62.6906 43.0041C62.6232 43.0024 62.5539 42.9988 62.4873 42.9935C62.1561 42.9732 61.8311 42.9353 61.5088 42.8761C61.4653 42.869 61.4218 42.8602 61.3783 42.8505C61.2203 42.8196 61.0622 42.7851 60.9077 42.7436C60.8225 42.7216 60.7364 42.6986 60.6511 42.673C60.5588 42.6456 60.4638 42.6174 60.3732 42.5865C60.082 42.4902 59.7987 42.3781 59.5199 42.25C59.4347 42.2121 59.3486 42.1706 59.2651 42.1291C59.1816 42.0876 59.0902 42.0408 59.0067 41.9931C58.9215 41.9463 58.838 41.8986 58.7519 41.8483C58.6684 41.7997 58.5868 41.7485 58.5042 41.6964C58.4216 41.6443 58.3426 41.5896 58.2627 41.5357C58.1828 41.4801 58.1028 41.4235 58.0265 41.3653C57.9226 41.2876 57.8214 41.2081 57.7193 41.1233C57.6704 41.0854 57.6207 41.0456 57.5737 41.0041C57.5097 40.9503 57.4485 40.8937 57.3863 40.8381C57.3153 40.7728 57.2442 40.7057 57.1768 40.6394C57.1386 40.6032 57.1004 40.5653 57.064 40.5255C57.0205 40.484 56.9788 40.4408 56.9388 40.3975C56.7497 40.1971 56.5694 39.9869 56.4025 39.7662C56.3679 39.7211 56.3315 39.6743 56.2986 39.6266C56.2622 39.5798 56.2294 39.5348 56.1965 39.4854C56.1424 39.4094 56.0873 39.33 56.0385 39.2505C55.9364 39.0986 55.8423 38.9414 55.7526 38.7798C55.7073 38.7021 55.6656 38.6227 55.6238 38.5414C55.6167 38.5308 55.6114 38.5194 55.6061 38.507C55.5732 38.4452 55.5439 38.3843 55.5155 38.3207C55.5031 38.2968 55.4898 38.2739 55.4791 38.2483C55.4702 38.2306 55.4631 38.2121 55.4533 38.1944L52.0962 30.9494L54.0931 26.6394C54.2423 26.3896 54.3674 26.122 54.4642 25.8403L56.5321 21.3785C57.5 19.7114 59.2891 18.6836 61.2256 18.6836C63.1621 18.6818 64.9521 19.7088 65.9191 21.3768H65.9208L68.0518 25.9772C68.1299 26.1909 68.2249 26.3931 68.3333 26.5865C68.3333 26.5882 68.335 26.59 68.3368 26.5918C69.1785 28.0929 70.8682 28.9679 72.6263 28.7525C74.3044 28.5467 75.6744 27.3962 76.1921 25.8518C76.1521 25.9984 76.1068 26.145 76.0571 26.2898C76.0554 26.2951 76.0536 26.2986 76.0518 26.3039C76.026 26.3763 76.0012 26.4487 75.9737 26.5211C75.9213 26.6642 75.8627 26.8072 75.8005 26.9476V26.9485Z" fill="url(#paint0_linear_2005_255)"/>
<path d="M54.0918 26.6394L52.0949 30.9493L48.7387 38.1943C48.7351 38.2014 48.7307 38.2085 48.7271 38.2155C47.3731 41.1365 44.4341 43.0102 41.1986 43.0102C37.9631 43.0102 35.0232 41.1365 33.6683 38.2155L33.6577 38.1943L30.3005 30.9493L25.8654 21.3793C24.8976 19.7113 23.1085 18.6844 21.172 18.6844C19.2346 18.6826 17.4454 19.7096 16.4785 21.3776L18.4621 17.0968L18.6459 16.7003L19.3029 15.2822L20.768 12.1211L22.7613 7.81907C22.8874 7.54534 23.0268 7.28132 23.1795 7.02701C23.6519 6.23849 24.2468 5.54445 24.934 4.96432C25.6497 4.35947 26.4656 3.87823 27.3456 3.54445C27.5613 3.46234 27.7806 3.38993 28.0026 3.32635C28.7387 3.11443 29.5103 3.00317 30.3005 3.00317C32.2113 3.00317 34.019 3.6566 35.4574 4.79214C35.9964 5.21774 36.483 5.71134 36.9047 6.2641C37.2679 6.74004 37.5831 7.26101 37.8397 7.81907L38.4674 9.17271L40.0479 12.582L41.1986 15.0641L42.5811 18.0469L46.2747 26.0177C46.2765 26.023 46.2783 26.0283 46.2818 26.0336C46.3396 26.1802 46.4053 26.3233 46.4781 26.461C46.4798 26.4645 46.4816 26.4681 46.4834 26.4698C47.247 27.9056 48.7697 28.8098 50.4292 28.7736C51.9591 28.7409 53.3353 27.9162 54.0918 26.6394Z" fill="url(#paint1_linear_2005_255)"/>
<path d="M18.6458 16.7005L18.462 17.097L16.4784 21.3778L14.3448 25.9782C14.343 25.9835 14.3412 25.9906 14.3377 25.9959L14.0686 26.5787C14.0668 26.584 14.0633 26.5875 14.0615 26.5928C13.2171 28.0939 11.5283 28.9689 9.7694 28.7544C8.09126 28.5478 6.72211 27.3981 6.20358 25.8537V25.8511C6.18316 25.7848 6.16718 25.7195 6.15031 25.6524C6.09437 25.4299 6.04731 25.2074 6.01091 24.9831C6.01091 24.9742 6.00913 24.9654 6.00735 24.9566C5.99581 24.8948 5.98693 24.8312 5.97983 24.7685C5.95941 24.6343 5.9452 24.4992 5.93455 24.365C5.76851 22.455 6.27817 20.531 7.39071 18.9433C7.43421 18.8815 7.47594 18.8224 7.52211 18.7623C7.78582 18.4038 8.08416 18.0656 8.40913 17.7513C8.46418 17.6974 8.51834 17.6462 8.57517 17.5941C8.63288 17.5394 8.69326 17.4873 8.75275 17.4352C9.44176 16.84 10.208 16.3729 11.0169 16.0409C11.1714 15.9773 11.3259 15.9173 11.4822 15.8634C11.6233 15.8149 11.7663 15.7707 11.9101 15.7301C12.0069 15.7018 12.1046 15.6754 12.2022 15.6515C12.3212 15.6224 12.4393 15.5976 12.5574 15.5738C13.139 15.4564 13.7303 15.4025 14.3226 15.4113C14.6715 15.4166 15.0205 15.444 15.3667 15.4926C15.7201 15.5429 16.0717 15.6153 16.418 15.7116C16.5476 15.7478 16.6773 15.7866 16.8051 15.829C16.9925 15.8908 17.1798 15.9606 17.3636 16.0365C17.456 16.0745 17.5492 16.1151 17.6398 16.1566C17.8236 16.2396 18.0038 16.3279 18.1823 16.4259C18.3385 16.5124 18.493 16.6034 18.6458 16.7005Z" fill="url(#paint2_linear_2005_255)"/>
<path d="M75.004 18.9429C76.1166 20.5306 76.6262 22.4546 76.4611 24.3646C76.4504 24.4988 76.4353 24.6339 76.4158 24.7681C76.4087 24.8317 76.3998 24.8944 76.3883 24.9562C76.3865 24.965 76.3847 24.9738 76.3847 24.9835C76.3723 25.0595 76.359 25.1354 76.343 25.2114C76.3155 25.3562 76.2826 25.4992 76.248 25.6414C76.248 25.6449 76.2462 25.6484 76.2444 25.652C76.2285 25.7191 76.2116 25.7844 76.192 25.8506V25.8524C75.6735 27.3968 74.3044 28.5473 72.6262 28.7531C70.8673 28.9685 69.1785 28.0926 68.3368 26.5924C68.335 26.5906 68.3332 26.5888 68.3332 26.5871L68.0518 25.9778L65.9208 21.3774L63.7534 16.6992C63.9061 16.6012 64.0589 16.5111 64.2151 16.4264C64.3936 16.3284 64.573 16.2401 64.7568 16.157C64.8473 16.1155 64.9405 16.0758 65.0329 16.0378C65.2167 15.9619 65.404 15.8913 65.5914 15.8295C66.062 15.674 66.5441 15.5619 67.0298 15.493C67.9647 15.3606 68.9157 15.388 69.8391 15.5743C69.9572 15.5981 70.0753 15.6228 70.1934 15.652C70.4349 15.712 70.6773 15.7818 70.9135 15.8639C71.0697 15.9178 71.2242 15.9778 71.3787 16.0414C72.1876 16.3743 72.9539 16.8405 73.6429 17.4356C73.7033 17.4877 73.7627 17.5407 73.8213 17.5946C73.8773 17.6467 73.9323 17.6979 73.9865 17.7518C74.3124 18.0661 74.6098 18.4043 74.8735 18.7628C74.9188 18.8228 74.9605 18.882 75.004 18.9438V18.9429Z" fill="url(#paint3_linear_2005_255)"/>
<path d="M65.9192 21.3776H65.9174C64.9496 19.7096 63.1605 18.6826 61.224 18.6844C59.2875 18.6844 57.4975 19.7113 56.5305 21.3793L54.4626 25.8403L54.0915 26.6394C53.335 27.9162 51.9587 28.7409 50.4289 28.7736C48.7694 28.8098 47.2466 27.9056 46.483 26.4698C46.4813 26.4681 46.4795 26.4645 46.4777 26.461L46.2815 26.0336C46.2779 26.0283 46.2762 26.023 46.2744 26.0177L42.5807 18.0469L41.1982 15.0641L42.3463 12.5864L44.5554 7.81907C45.905 4.88573 48.8511 3.00317 52.0946 3.00317C55.3381 3.00317 58.285 4.88573 59.6346 7.81907L63.7518 16.6985L65.9192 21.3776Z" fill="url(#paint4_linear_2005_255)"/>
<path d="M6.5942 26.9482C6.53205 26.8069 6.47433 26.6639 6.42106 26.5217C6.39353 26.4493 6.36867 26.3769 6.34292 26.3045C6.34115 26.2992 6.33937 26.2957 6.3376 26.2904C6.28876 26.1455 6.24259 25.999 6.20264 25.8524C6.72117 27.3968 8.09032 28.5473 9.76845 28.7531C11.5274 28.9685 13.2162 28.0926 14.0597 26.5923C14.0615 26.587 14.065 26.5835 14.0668 26.5782C14.1707 26.3937 14.2595 26.1985 14.3358 25.9963C14.3394 25.991 14.3411 25.984 14.3429 25.9787L16.4757 21.3782C17.4435 19.7111 19.2326 18.6833 21.1691 18.6851C23.1056 18.6851 24.8956 19.712 25.8626 21.38L30.2976 30.95L26.9405 38.195C26.9316 38.2127 26.9245 38.2312 26.9147 38.2489C26.9041 38.2727 26.8908 38.2974 26.8783 38.3213C26.8508 38.3848 26.8197 38.4458 26.7878 38.5076C26.6839 38.7116 26.5711 38.9111 26.4495 39.1027C26.4131 39.1645 26.3749 39.2255 26.3332 39.2855C26.3332 39.2855 26.3332 39.2861 26.3332 39.2873C26.2346 39.4374 26.1316 39.5822 26.0259 39.7235C26.0259 39.7252 26.0242 39.7252 26.0242 39.7252C25.9824 39.7809 25.9389 39.8374 25.8936 39.8912C25.8155 39.9928 25.732 40.0917 25.6459 40.1879C25.5225 40.3292 25.3946 40.4643 25.2623 40.5968C25.1878 40.6709 25.1114 40.7433 25.035 40.8157C24.9658 40.8793 24.8948 40.942 24.8219 41.0038C24.7491 41.0674 24.6728 41.1283 24.5982 41.1901C24.5218 41.2502 24.4455 41.3093 24.3673 41.3676C24.2892 41.4259 24.2111 41.4815 24.1312 41.538C24.0512 41.5919 23.9713 41.6467 23.8897 41.6987C23.808 41.7508 23.7263 41.8021 23.6419 41.8506C23.5585 41.901 23.4732 41.9504 23.3871 41.9954C23.3036 42.0422 23.2157 42.0873 23.1287 42.1314C23.0453 42.1729 22.96 42.2144 22.8739 42.2524C22.5978 42.3804 22.3118 42.4926 22.0206 42.5888C21.93 42.6197 21.8368 42.6489 21.7427 42.6753C21.6575 42.701 21.5713 42.7239 21.4861 42.746C21.3316 42.7875 21.1736 42.8219 21.0155 42.8528C20.972 42.8617 20.9285 42.8705 20.885 42.8784C20.5627 42.9385 20.2377 42.9765 19.9065 42.9959C19.839 43.0012 19.7698 43.0047 19.7032 43.0065C19.6029 43.01 19.5016 43.0118 19.4013 43.0118C18.6954 43.0118 18.0029 42.9235 17.3369 42.7531C17.1496 42.7045 16.9622 42.6497 16.7802 42.5888C16.7509 42.58 16.7216 42.5712 16.6932 42.5579C16.5751 42.5182 16.457 42.4749 16.3407 42.4281C16.3043 42.4157 16.2679 42.4007 16.2333 42.3866C16.164 42.3575 16.0948 42.3283 16.0282 42.2983C16.0042 42.2895 15.9829 42.278 15.9589 42.2674C15.7822 42.1879 15.6082 42.1014 15.4386 42.0087C15.348 41.9619 15.2584 41.9107 15.1713 41.8586C15.0932 41.8118 15.0151 41.7641 14.9369 41.7138C14.7736 41.6104 14.6128 41.5018 14.4584 41.3862C14.3802 41.3279 14.3039 41.2687 14.2275 41.2087C14.0037 41.0312 13.7871 40.8414 13.5838 40.6409C13.5545 40.6135 13.5278 40.587 13.5021 40.5579C13.3911 40.4493 13.2854 40.3354 13.1824 40.2197C12.8584 39.8559 12.5662 39.4603 12.3096 39.0391C12.259 38.9544 12.2075 38.8687 12.1605 38.7822C12.1365 38.7407 12.1134 38.701 12.093 38.6577C12.0619 38.6056 12.0344 38.5526 12.0095 38.5005C11.966 38.4175 11.9261 38.3345 11.8861 38.2506C11.8825 38.2436 11.8808 38.2383 11.8772 38.2303C10.1458 34.5358 8.41085 30.8369 6.67855 27.1425C6.64925 27.0789 6.61995 27.0144 6.59331 26.9508L6.5942 26.9482Z" fill="url(#paint5_linear_2005_255)"/>
</g>
<path d="M103.082 38H99.2928V9.45929H103.082L112.912 33.4603L122.741 9.45929H126.61V38H122.82V26.71C122.82 21.3809 122.86 19.4466 123.057 17.4333L114.728 38H111.096L102.806 17.5123C103.004 18.8939 103.082 21.8151 103.082 25.8021V38ZM139.058 38.4737C134.914 38.4737 132.466 36.1447 132.466 32.6313C132.466 29.0786 135.111 26.8679 139.651 26.5127L145.73 26.039V25.4863C145.73 22.2493 143.795 21.1045 141.19 21.1045C138.072 21.1045 136.295 22.4862 136.295 24.8152H133.058C133.058 20.7887 136.374 18.1439 141.348 18.1439C146.125 18.1439 149.362 20.6703 149.362 25.8811V38H146.203L145.809 34.8814C144.822 37.0921 142.177 38.4737 139.058 38.4737ZM140.124 35.592C143.638 35.592 145.769 33.3024 145.769 29.6707V28.6443L140.835 29.0391C137.558 29.3549 136.216 30.6181 136.216 32.5129C136.216 34.5656 137.716 35.592 140.124 35.592ZM163.619 38.4737C157.935 38.4737 154.027 34.3683 154.027 28.368C154.027 22.3283 157.856 18.1439 163.461 18.1439C168.948 18.1439 172.541 21.9335 172.541 27.6574V29.0391L157.619 29.0786C157.895 33.1445 160.027 35.3946 163.698 35.3946C166.58 35.3946 168.475 34.2104 169.106 31.9997H172.58C171.633 36.1447 168.396 38.4737 163.619 38.4737ZM163.461 21.2624C160.224 21.2624 158.172 23.1967 157.698 26.5916H168.83C168.83 23.3941 166.738 21.2624 163.461 21.2624ZM175.896 32.3945H179.449C179.449 34.3683 180.949 35.5525 183.396 35.5525C186.001 35.5525 187.502 34.4867 187.502 32.7103C187.502 31.4076 186.87 30.6181 184.857 30.1049L181.462 29.3154C178.027 28.4864 176.409 26.789 176.409 23.9468C176.409 20.394 179.409 18.1439 183.672 18.1439C187.896 18.1439 190.66 20.5124 190.739 24.1836H187.186C187.107 22.2493 185.804 21.0256 183.554 21.0256C181.225 21.0256 179.922 22.0519 179.922 23.8283C179.922 25.131 180.87 25.9995 182.764 26.4732L186.159 27.3022C189.436 28.0917 191.054 29.5917 191.054 32.4734C191.054 36.1447 187.896 38.4737 183.317 38.4737C178.777 38.4737 175.896 36.0657 175.896 32.3945ZM201.406 38H197.696V21.8151H193.906V18.6965H197.696V12.6568H201.406V18.6965H205.196V21.8151H201.406V38ZM217.452 38.4737C211.768 38.4737 207.86 34.3683 207.86 28.368C207.86 22.3283 211.689 18.1439 217.294 18.1439C222.781 18.1439 226.374 21.9335 226.374 27.6574V29.0391L211.452 29.0786C211.728 33.1445 213.86 35.3946 217.531 35.3946C220.413 35.3946 222.308 34.2104 222.939 31.9997H226.413C225.466 36.1447 222.229 38.4737 217.452 38.4737ZM217.294 21.2624C214.057 21.2624 212.005 23.1967 211.531 26.5916H222.663C222.663 23.3941 220.571 21.2624 217.294 21.2624ZM242.361 18.5386V21.9335H240.703C237.19 21.9335 235.018 24.0652 235.018 27.7759V38H231.308V18.736H234.782L235.018 21.6572C235.808 19.6439 237.742 18.3018 240.387 18.3018C241.058 18.3018 241.611 18.3807 242.361 18.5386Z" fill="white"/>
<defs>
<linearGradient id="paint0_linear_2005_255" x1="57.6012" y1="20.0019" x2="70.7041" y2="39.5358" gradientUnits="userSpaceOnUse">
<stop stop-color="#E24E1B"/>
<stop offset="0.5" stop-color="#D24109"/>
<stop offset="0.68" stop-color="#BE3A08"/>
<stop offset="1" stop-color="#952E06"/>
</linearGradient>
<linearGradient id="paint1_linear_2005_255" x1="20.0967" y1="10.8442" x2="51.27" y2="35.3348" gradientUnits="userSpaceOnUse">
<stop stop-color="#E24E1B"/>
<stop offset="0.5" stop-color="#D24109"/>
<stop offset="0.94" stop-color="#952E06"/>
</linearGradient>
<linearGradient id="paint2_linear_2005_255" x1="6.51257" y1="20.3835" x2="16.7343" y2="23.3309" gradientUnits="userSpaceOnUse">
<stop stop-color="#E24E1B"/>
<stop offset="0.5" stop-color="#D24109"/>
<stop offset="0.92" stop-color="#952E06"/>
</linearGradient>
<linearGradient id="paint3_linear_2005_255" x1="72.5081" y1="16.5941" x2="67.1456" y2="26.7353" gradientUnits="userSpaceOnUse">
<stop stop-color="#F75D2C"/>
<stop offset="0.5" stop-color="#D24109"/>
<stop offset="0.89" stop-color="#952E06"/>
</linearGradient>
<linearGradient id="paint4_linear_2005_255" x1="43.0566" y1="19.7837" x2="61.0495" y2="10.565" gradientUnits="userSpaceOnUse">
<stop stop-color="#F75D2C"/>
<stop offset="0.5" stop-color="#D24109"/>
<stop offset="0.94" stop-color="#952E06"/>
</linearGradient>
<linearGradient id="paint5_linear_2005_255" x1="7.66146" y1="33.3138" x2="29.9122" y2="28.9639" gradientUnits="userSpaceOnUse">
<stop stop-color="#F75D2C"/>
<stop offset="0.5" stop-color="#D24109"/>
<stop offset="0.56" stop-color="#C63D08"/>
<stop offset="0.73" stop-color="#AB3407"/>
<stop offset="0.88" stop-color="#9A2F06"/>
<stop offset="0.99" stop-color="#952E06"/>
</linearGradient>
<clipPath id="clip0_2005_255">
<rect width="70.5882" height="40" fill="white" transform="translate(6 3)"/>
</clipPath>
</defs>
</svg>
