<svg width="218" height="35" viewBox="0 0 218 35" fill="none" xmlns="http://www.w3.org/2000/svg">
<g clip-path="url(#clip0_24_932)">
<path fill-rule="evenodd" clip-rule="evenodd" d="M90.598 29.8449L80.3794 12.471L83.2229 7.66983L99.088 34.6588H93.4134L90.5828 29.8449H90.598ZM77.0342 12.4964L85.5518 26.9763H79.929L74.2161 17.2998L66.8432 29.8449H87.2376L90.0811 34.6588H58.3516L74.2161 7.65711L77.0466 12.471L77.0342 12.4964ZM78.7172 9.64106L75.8867 4.8139L78.7172 0L81.5478 4.8139L78.7172 9.64106Z" fill="#80C739"/>
<path fill-rule="evenodd" clip-rule="evenodd" d="M22.3753 20.0526L15.1314 31.917H12.5565L5.31426 20.2423V34.6591H0V9.73198H4.50456L13.9078 25.1319L23.1473 9.73198H27.6518L27.6907 34.6618H22.4012L22.3753 20.0526ZM46.4882 25.8524V34.6591H40.9555V25.9154L30.9965 9.73198H37.005L43.8632 20.9373L50.7985 9.73198H56.4197L46.4882 25.8524ZM126.649 21.6069C127.632 22.0652 128.492 22.7447 129.158 23.5903C130.072 24.778 130.444 26.1808 130.444 27.6589C130.444 29.8325 129.608 31.614 127.794 32.8648C125.722 34.3024 122.866 34.6591 120.395 34.6591H107.772V9.73198H119.699C122.054 9.73198 124.679 10.0859 126.647 11.476C128.359 12.6891 129.181 14.3822 129.181 16.4414C129.181 17.6545 128.911 18.8046 128.28 19.8408C127.862 20.5322 127.307 21.1339 126.647 21.6102L126.649 21.6069ZM147.866 35.0013C145.421 35.0013 143.067 34.496 140.905 33.3464C138.876 32.2891 137.184 30.7018 136.016 28.7598C134.793 26.7377 134.24 24.5264 134.24 22.1892C134.24 19.8519 134.793 17.6401 136.016 15.6313C137.213 13.6599 138.842 12.1268 140.905 11.0319C143.067 9.88238 145.421 9.38916 147.866 9.38916C150.323 9.38916 152.665 9.88238 154.827 11.0319C156.886 12.1185 158.533 13.6474 159.73 15.6059C160.952 17.628 161.505 19.8513 161.505 22.1892C161.505 24.5392 160.952 26.7504 159.73 28.7719C158.533 30.7432 156.886 32.2593 154.827 33.3464C152.665 34.496 150.311 35.0013 147.866 35.0013ZM166.999 9.73198H178.168C180.651 9.73198 183.083 10.1743 185.322 11.2736C187.38 12.2722 189.038 13.7248 190.224 15.6584C191.459 17.6545 191.974 19.8784 191.974 22.1908C191.974 24.5132 191.459 26.7249 190.224 28.7233C189.041 30.6586 187.38 32.1095 185.322 33.1202C183.083 34.2195 180.651 34.6618 178.168 34.6618H166.999V9.73198ZM207.954 25.8552V34.6591H202.424V25.9154L192.463 9.73198H198.459L205.328 20.9401L212.252 9.73198H217.875L207.954 25.8552ZM113.293 14.1898V19.8254H119.212C120.305 19.8254 121.643 19.686 122.57 19.0673C123.316 18.574 123.625 17.8917 123.625 17.0214C123.625 16.1511 123.329 15.4416 122.57 14.949C121.643 14.3297 120.305 14.1909 119.212 14.1909L113.293 14.1898ZM113.293 24.2478V30.1863H120.112C122.235 30.1863 124.886 29.8197 124.886 27.2171C124.886 24.6265 122.235 24.2478 120.112 24.2478H113.293ZM147.866 30.1228C149.33 30.1228 150.737 29.807 152.022 29.0993C153.227 28.4411 154.222 27.4654 154.893 26.282C155.625 25.0186 155.948 23.6412 155.948 22.1903C155.948 20.7526 155.626 19.3703 154.893 18.109C154.222 16.9219 153.228 15.9418 152.022 15.2785C150.734 14.5691 149.333 14.2661 147.866 14.2661C146.399 14.2661 145.01 14.5697 143.723 15.2769C142.514 15.9399 141.516 16.9199 140.841 18.1074C140.12 19.3708 139.799 20.7482 139.799 22.1886C139.799 23.6417 140.12 25.0191 140.841 26.2804C141.517 27.4641 142.515 28.4396 143.723 29.0976C145.01 29.8054 146.399 30.1211 147.866 30.1211L147.866 30.1228ZM172.532 14.4679V29.9082H177.961C179.518 29.9082 181.049 29.6428 182.452 28.9605C183.7 28.3412 184.69 27.457 185.385 26.2693C186.117 25.0186 186.415 23.6285 186.415 22.1881C186.415 20.7477 186.119 19.3576 185.385 18.1068C184.691 16.9202 183.701 16.0355 182.452 15.4273C181.05 14.7328 179.519 14.4674 177.962 14.4674L172.532 14.4679Z" fill="white"/>
</g>
<defs>
<clipPath id="clip0_24_932">
<rect width="217.875" height="35" fill="white"/>
</clipPath>
</defs>
</svg>
